<svg version="1.1" xmlns="http://www.w3.org/2000/svg" viewBox="0 0 1394.3661743058651 603.8452250025418" width="4183.098522917595" height="1811.5356750076255" filter="invert(93%) hue-rotate(180deg)">
  <!-- svg-source:excalidraw -->
  
  <defs>
    <style class="style-fonts">
      @font-face {
        font-family: "Virgil";
        src: url("https://excalidraw.com/Virgil.woff2");
      }
      @font-face {
        font-family: "Cascadia";
        src: url("https://excalidraw.com/Cascadia.woff2");
      }
    </style>
  </defs>
  <rect x="0" y="0" width="1394.3661743058651" height="603.8452250025418" fill="#ffffff"></rect><g stroke-opacity="0.8" fill-opacity="0.8" stroke-linecap="round" transform="translate(524.8095055805726 58.756291772998736) rotate(0 429.77833436264626 150.42967379657924)"><path d="M32 0 M32 0 C215.1 -2.77, 396.36 -2.51, 827.56 0 M32 0 C196.72 2.09, 361.28 2.34, 827.56 0 M827.56 0 C847.59 1.15, 859.71 9.71, 859.56 32 M827.56 0 C847.41 1.63, 860.19 9.96, 859.56 32 M859.56 32 C860.54 119.28, 859.43 210.86, 859.56 268.86 M859.56 32 C861.31 97.57, 860.93 164.13, 859.56 268.86 M859.56 268.86 C859.72 288.95, 847.41 301.5, 827.56 300.86 M859.56 268.86 C857.6 288.07, 849.81 298.99, 827.56 300.86 M827.56 300.86 C576.1 300.37, 324.71 300.97, 32 300.86 M827.56 300.86 C642.76 301.18, 457.58 301.64, 32 300.86 M32 300.86 C11.34 299.1, -1.1 288.61, 0 268.86 M32 300.86 C12.57 300.43, -0.2 291.86, 0 268.86 M0 268.86 C-1.17 214.39, 0.56 159.95, 0 32 M0 268.86 C-0.54 193.37, -1.66 116.32, 0 32 M0 32 C0.94 11.35, 11.52 -1.03, 32 0 M0 32 C0.02 8.49, 9.88 0.84, 32 0" stroke="#0b7285" stroke-width="1" fill="none"></path></g><g stroke-opacity="0.8" fill-opacity="0.8" stroke-linecap="round" transform="translate(513.8285218641237 502.31006875254184) rotate(0 276.177734375 45.767578125)"><path d="M22.88 0 M22.88 0 C212.16 0.89, 401.36 1.11, 529.47 0 M22.88 0 C141.65 0.35, 259.36 0.35, 529.47 0 M529.47 0 C544.88 -0.95, 551.07 9.05, 552.36 22.88 M529.47 0 C545.36 -0.71, 554.08 7.23, 552.36 22.88 M552.36 22.88 C552.98 40.49, 552.27 56.04, 552.36 68.65 M552.36 22.88 C553.29 35.49, 552.87 45.81, 552.36 68.65 M552.36 68.65 C550.88 84.54, 543.03 89.69, 529.47 91.54 M552.36 68.65 C553.28 82.03, 545.1 93.41, 529.47 91.54 M529.47 91.54 C375.01 89.73, 218.85 89.13, 22.88 91.54 M529.47 91.54 C369.25 90.93, 209.79 90.3, 22.88 91.54 M22.88 91.54 C6.53 89.96, 1.66 83.54, 0 68.65 M22.88 91.54 C7.42 93.2, -1.61 84.38, 0 68.65 M0 68.65 C1.36 56.19, 0.62 45.06, 0 22.88 M0 68.65 C-0.87 54.24, 0.08 41.99, 0 22.88 M0 22.88 C0.86 6.6, 7.64 -1.89, 22.88 0 M0 22.88 C-0.79 8.47, 9.12 0.18, 22.88 0" stroke="#862e9c" stroke-width="1" fill="none"></path></g><g stroke-opacity="0.8" fill-opacity="0.8" transform="translate(558.130061790791 10) rotate(0 60.70396423339844 17.5)"><text x="0" y="0" font-family="Virgil, Segoe UI Emoji" font-size="28px" fill="#0b7285" text-anchor="start" style="white-space: pre;" direction="ltr" dominant-baseline="text-before-edge">Starknet</text></g><g stroke-opacity="0.8" fill-opacity="0.8" stroke-linecap="round" transform="translate(15.149593040791046 294.7578125) rotate(0 20.365234375 16.666015625)"><path d="M27.78 0.32 C31.88 1.11, 36.48 5.24, 38.51 8.32 C40.54 11.4, 40.67 15.26, 39.97 18.82 C39.26 22.37, 37.56 27.1, 34.26 29.64 C30.96 32.18, 24.69 34.02, 20.18 34.08 C15.67 34.14, 10.37 32.57, 7.2 30.02 C4.02 27.46, 1.86 22.23, 1.12 18.76 C0.39 15.28, 0.81 12.05, 2.8 9.18 C4.79 6.3, 8.83 2.66, 13.06 1.52 C17.28 0.38, 25.4 2.16, 28.14 2.36 C30.89 2.56, 29.45 2.62, 29.53 2.73 M12.86 -0.58 C17.01 -2.11, 24.36 -1.77, 28.66 0.01 C32.95 1.8, 36.67 6.67, 38.62 10.11 C40.57 13.55, 41.54 17.19, 40.36 20.65 C39.19 24.12, 35.06 28.98, 31.58 30.92 C28.09 32.86, 23.8 32.58, 19.44 32.3 C15.08 32.03, 8.6 31.59, 5.42 29.25 C2.23 26.91, 0.91 21.68, 0.33 18.28 C-0.24 14.88, -0.41 11.99, 1.97 8.85 C4.35 5.72, 12.72 0.97, 14.64 -0.52 C16.55 -2.01, 13.21 -0.51, 13.43 -0.07" stroke="#343a40" stroke-width="1" fill="none"></path></g><g stroke-opacity="0.8" fill-opacity="0.8" transform="translate(30.215999290791046 307.12890625) rotate(0 0 -0.060546875)" stroke="none"><path fill="#343a40" d="M 2.12,-0.66 Q 2.12,-0.66 2.15,-0.13 2.18,0.40 1.96,0.88 1.74,1.36 1.32,1.69 0.91,2.02 0.38,2.12 -0.13,2.21 -0.64,2.05 -1.14,1.90 -1.52,1.52 -1.90,1.14 -2.05,0.64 -2.21,0.13 -2.12,-0.38 -2.02,-0.91 -1.69,-1.32 -1.36,-1.74 -0.88,-1.96 -0.39,-2.18 0.13,-2.15 0.66,-2.11 1.11,-1.84 1.57,-1.56 1.84,-1.11 L 2.12,-0.66 Z"></path></g><g stroke-opacity="0.8" fill-opacity="0.8" transform="translate(38.641780540791046 306.5078125) rotate(0 0.00004999999998744897 0.00005000000000165983)" stroke="none"><path fill="#343a40" d="M 1.57,-1.57 Q 1.57,-1.57 1.77,-1.27 1.98,-0.98 2.09,-0.64 2.20,-0.29 2.19,0.05 2.18,0.41 2.05,0.75 1.93,1.09 1.70,1.37 1.48,1.65 1.18,1.84 0.87,2.04 0.52,2.12 0.18,2.21 -0.17,2.18 -0.53,2.15 -0.86,2.01 -1.19,1.87 -1.46,1.63 -1.73,1.39 -1.90,1.07 -2.08,0.76 -2.15,0.41 -2.21,0.05 -2.17,-0.29 -2.12,-0.65 -1.96,-0.97 -1.80,-1.29 -1.54,-1.54 -1.29,-1.80 -0.97,-1.96 -0.65,-2.12 -0.29,-2.17 0.06,-2.21 0.41,-2.15 0.76,-2.08 1.07,-1.90 1.39,-1.73 1.63,-1.46 1.87,-1.19 2.01,-0.86 2.15,-0.53 2.18,-0.17 2.21,0.18 2.12,0.52 2.03,0.87 1.84,1.18 1.65,1.48 1.37,1.70 1.09,1.93 0.75,2.05 0.41,2.18 0.05,2.19 -0.30,2.20 -0.64,2.09 -0.98,1.98 -1.27,1.77 -1.57,1.56 -1.57,1.57 -1.57,1.57 -1.73,1.35 -1.90,1.14 -2.01,0.90 -2.12,0.66 -2.16,0.39 -2.21,0.13 -2.20,-0.13 -2.18,-0.40 -2.10,-0.65 -2.02,-0.91 -1.88,-1.14 -1.74,-1.36 -1.55,-1.55 -1.36,-1.74 -1.14,-1.88 -0.91,-2.02 -0.65,-2.10 -0.40,-2.18 -0.13,-2.20 0.13,-2.21 0.39,-2.16 0.66,-2.12 0.90,-2.01 1.14,-1.90 1.35,-1.73 1.57,-1.57 1.57,-1.57 L 1.57,-1.57 Z"></path></g><g stroke-linecap="round"><g stroke-opacity="0.8" fill-opacity="0.8" transform="translate(39.809749290791046 329.77734375) rotate(0 8.024564983724872 24.22907191347332)"><path d="M-0.78 0.69 C-0.96 5.89, -2.59 23.94, 0.09 31.9 C2.77 39.87, 12.61 45.9, 15.33 48.45 M1.02 0 C0.58 5.3, -3.61 25.38, -0.81 33.14 C1.99 40.9, 14.87 44.06, 17.82 46.56" stroke="#343a40" stroke-width="1" fill="none"></path></g></g><mask></mask><g stroke-linecap="round"><g stroke-opacity="0.8" fill-opacity="0.8" transform="translate(23.454280540791046 348.41015625) rotate(0 21.2718346370757 -3.0971087206900165)"><path d="M0.09 -0.57 C7.15 -1.73, 34.46 -5.11, 41.56 -6.26 M-1.32 1.74 C6.19 0.19, 36.63 -6.59, 43.87 -7.94" stroke="#343a40" stroke-width="1" fill="none"></path></g></g><mask></mask><g stroke-linecap="round"><g stroke-opacity="0.8" fill-opacity="0.8" transform="translate(41.567561790791046 363.93359375) rotate(0 -8.49341726854442 7.742686341553934)"><path d="M-0.77 0.85 C-3.66 3.26, -14.59 11.69, -17.23 13.89 M1.02 0.25 C-2 2.89, -15.01 12.73, -18.01 15.23" stroke="#343a40" stroke-width="1" fill="none"></path></g></g><mask></mask><g stroke-linecap="round"><g stroke-opacity="0.8" fill-opacity="0.8" transform="translate(29.301936790791046 317.72265625) rotate(0 7.512813177444059 -3.2159646105976094)"><path d="M0.33 -0.37 C2.05 -0.63, 6.95 0.11, 9.56 -0.73 C12.17 -1.58, 15.2 -4.53, 15.98 -5.45 M-0.96 -1.61 C0.75 -1.76, 6.34 1.64, 9.09 0.69 C11.84 -0.25, 14.73 -6.33, 15.54 -7.29" stroke="#343a40" stroke-width="1" fill="none"></path></g></g><mask></mask><g stroke-opacity="0.8" fill-opacity="0.8" stroke-linecap="round" transform="translate(156.05974929079105 137.578125) rotate(0 170 74)"><path d="M32 0 M32 0 C122.08 -0.8, 213.93 -3, 308 0 M32 0 C118.79 0.15, 205.56 0.35, 308 0 M308 0 C330.33 1.66, 340.17 9.42, 340 32 M308 0 C327.63 0.73, 338.05 8.54, 340 32 M340 32 C340.95 60.69, 339.95 87.44, 340 116 M340 32 C339.07 63.44, 340.01 94.12, 340 116 M340 116 C338.45 138.75, 330 146.24, 308 148 M340 116 C338.74 135.52, 331.24 147.58, 308 148 M308 148 C227.96 146.06, 146.58 146.47, 32 148 M308 148 C209.85 148.4, 111.37 148.8, 32 148 M32 148 C9.7 146.18, 0.94 138.02, 0 116 M32 148 C11.65 146.82, 0.02 135.16, 0 116 M0 116 C-0.16 91.72, -0.93 72.53, 0 32 M0 116 C-0.67 89.96, -1.71 62.92, 0 32 M0 32 C0.52 11.08, 10.38 -0.08, 32 0 M0 32 C1.06 12.6, 8.95 0.83, 32 0" stroke="#5f3dc4" stroke-width="1" fill="none"></path></g><g stroke-opacity="0.8" fill-opacity="0.8" transform="translate(164.60271804079105 94.12109375) rotate(0 90.52396392822266 17.5)"><text x="0" y="0" font-family="Virgil, Segoe UI Emoji" font-size="28px" fill="#5f3dc4" text-anchor="start" style="white-space: pre;" direction="ltr" dominant-baseline="text-before-edge">Kakarot RPC</text></g><g stroke-linecap="round"><g stroke-opacity="0.8" fill-opacity="0.8" transform="translate(63.31701474241822 313.48247531788013) rotate(0 40.767324740290576 -39.65278873431093)"><path d="M0.91 -0.27 C14.69 -13.47, 68.07 -65.96, 81.61 -79.03 M-0.08 -1.46 C13.69 -14.51, 67.29 -65.09, 80.97 -77.77" stroke="#343a40" stroke-width="1" fill="none"></path></g><g stroke-opacity="0.8" fill-opacity="0.8" transform="translate(63.31701474241822 313.48247531788013) rotate(0 40.767324740290576 -39.65278873431093)"><path d="M66.95 -50.05 C69.36 -54.82, 72.71 -61.33, 82.63 -77.6 M66.55 -51.93 C71.23 -58.23, 74.22 -62.96, 81.03 -77.45" stroke="#343a40" stroke-width="1" fill="none"></path></g><g stroke-opacity="0.8" fill-opacity="0.8" transform="translate(63.31701474241822 313.48247531788013) rotate(0 40.767324740290576 -39.65278873431093)"><path d="M52.93 -65.03 C58.29 -66.77, 64.59 -70.14, 82.63 -77.6 M52.53 -66.91 C60.43 -69.69, 66.75 -70.86, 81.03 -77.45" stroke="#343a40" stroke-width="1" fill="none"></path></g></g><mask></mask><g stroke-opacity="0.8" fill-opacity="0.8" transform="translate(10 227.40625) rotate(0 51.20796203613281 30)"><text x="0" y="0" font-family="Virgil, Segoe UI Emoji" font-size="16px" fill="#343a40" text-anchor="start" style="white-space: pre;" direction="ltr" dominant-baseline="text-before-edge">1. Alice sends</text><text x="0" y="20" font-family="Virgil, Segoe UI Emoji" font-size="16px" fill="#343a40" text-anchor="start" style="white-space: pre;" direction="ltr" dominant-baseline="text-before-edge">EVM tx </text><text x="0" y="40" font-family="Virgil, Segoe UI Emoji" font-size="16px" fill="#343a40" text-anchor="start" style="white-space: pre;" direction="ltr" dominant-baseline="text-before-edge">or call</text></g><g stroke-opacity="0.8" fill-opacity="0.8" stroke-linecap="round" transform="translate(357.84490554079105 190.046875) rotate(0 67.119140625 42.789062499999986)"><path d="M21.39 0 M21.39 0 C52.87 0.13, 86.7 -0.7, 112.84 0 M21.39 0 C42.29 -1.21, 65.29 -1.11, 112.84 0 M112.84 0 C127.43 1.63, 134.36 7.76, 134.24 21.39 M112.84 0 C125.15 1.66, 134.01 5.58, 134.24 21.39 M134.24 21.39 C133.43 29.06, 135.72 40.48, 134.24 64.18 M134.24 21.39 C134.83 30.28, 133.91 40.26, 134.24 64.18 M134.24 64.18 C132.84 78.85, 126.54 84.67, 112.84 85.58 M134.24 64.18 C134.2 79.77, 127.07 86.05, 112.84 85.58 M112.84 85.58 C80.57 85.39, 44.59 87.29, 21.39 85.58 M112.84 85.58 C82.29 84.16, 51.38 85.48, 21.39 85.58 M21.39 85.58 C8.43 85.73, -1.95 77.83, 0 64.18 M21.39 85.58 C8.5 85.83, 1.99 76.5, 0 64.18 M0 64.18 C-1.66 51.64, 0.37 37.77, 0 21.39 M0 64.18 C-0.94 51.89, 0.72 38.52, 0 21.39 M0 21.39 C-0.79 5.18, 6.94 1.01, 21.39 0 M0 21.39 C1.88 5.58, 8.77 1.17, 21.39 0" stroke="#0b7285" stroke-width="1" fill="none"></path></g><g stroke-opacity="0.8" fill-opacity="0.8" transform="translate(386.93474929079105 149.7371379573171) rotate(0 40.04796600341797 20)"><text x="0" y="0" font-family="Virgil, Segoe UI Emoji" font-size="16px" fill="#0b7285" text-anchor="start" style="white-space: pre;" direction="ltr" dominant-baseline="text-before-edge">Starknet </text><text x="0" y="20" font-family="Virgil, Segoe UI Emoji" font-size="16px" fill="#0b7285" text-anchor="start" style="white-space: pre;" direction="ltr" dominant-baseline="text-before-edge">JSON-RPC</text></g><g stroke-opacity="0.8" fill-opacity="0.8" transform="translate(365.97381179079105 212.16015625) rotate(0 45.16797637939453 20)"><text x="0" y="0" font-family="Virgil, Segoe UI Emoji" font-size="16px" fill="#0b7285" text-anchor="start" style="white-space: pre;" direction="ltr" dominant-baseline="text-before-edge">3. add </text><text x="0" y="20" font-family="Virgil, Segoe UI Emoji" font-size="16px" fill="#0b7285" text-anchor="start" style="white-space: pre;" direction="ltr" dominant-baseline="text-before-edge">transaction</text></g><g stroke-opacity="0.8" fill-opacity="0.8" transform="translate(172.06756179079105 178.6640625) rotate(0 78.48795318603516 30)"><text x="0" y="0" font-family="Virgil, Segoe UI Emoji" font-size="16px" fill="#5f3dc4" text-anchor="start" style="white-space: pre;" direction="ltr" dominant-baseline="text-before-edge">2. Wrap EVM tx</text><text x="0" y="20" font-family="Virgil, Segoe UI Emoji" font-size="16px" fill="#5f3dc4" text-anchor="start" style="white-space: pre;" direction="ltr" dominant-baseline="text-before-edge">with user Starknet </text><text x="0" y="40" font-family="Virgil, Segoe UI Emoji" font-size="16px" fill="#5f3dc4" text-anchor="start" style="white-space: pre;" direction="ltr" dominant-baseline="text-before-edge">account address</text></g><g stroke-opacity="0.8" fill-opacity="0.8" stroke-linecap="round" transform="translate(526.512874290791 195.0826747245522) rotate(0 45 41)"><path d="M20.5 0 M20.5 0 C29.41 0.13, 43.21 -0.08, 69.5 0 M20.5 0 C36.64 -1.03, 52.14 -0.2, 69.5 0 M69.5 0 C83.35 -0.87, 88.45 8.25, 90 20.5 M69.5 0 C83.94 -2.02, 88.74 5.02, 90 20.5 M90 20.5 C91.37 34.8, 90.33 51.33, 90 61.5 M90 20.5 C89.97 31.13, 90.62 41.31, 90 61.5 M90 61.5 C91.7 76.11, 82.2 80.18, 69.5 82 M90 61.5 C91.08 75.95, 84.15 80.82, 69.5 82 M69.5 82 C55.5 83.13, 40.19 79.89, 20.5 82 M69.5 82 C57.18 81.21, 43.18 82.15, 20.5 82 M20.5 82 C4.88 80.38, 0.52 75.58, 0 61.5 M20.5 82 C6.51 81.9, 1.06 77.1, 0 61.5 M0 61.5 C-0.85 51.46, -2.09 42.82, 0 20.5 M0 61.5 C0.38 47.65, -1.02 33.14, 0 20.5 M0 20.5 C1.31 4.87, 4.93 -0.06, 20.5 0 M0 20.5 C0.13 8.22, 7.9 -0.65, 20.5 0" stroke="#0b7285" stroke-width="1" fill="none"></path></g><g stroke-opacity="0.8" fill-opacity="0.8" transform="translate(533.4168888781934 218.0826747245522) rotate(0 38.095985412597656 18)"><text x="38.095985412597656" y="0" font-family="Virgil, Segoe UI Emoji" font-size="16px" fill="#0b7285" text-anchor="middle" style="white-space: pre;" direction="ltr" dominant-baseline="text-before-edge">Starknet</text><text x="38.095985412597656" y="18" font-family="Virgil, Segoe UI Emoji" font-size="16px" fill="#0b7285" text-anchor="middle" style="white-space: pre;" direction="ltr" dominant-baseline="text-before-edge">Sequencer</text></g><g stroke-opacity="0.8" fill-opacity="0.8" stroke-linecap="round" transform="translate(801.7684671629278 72.7272092026098) rotate(0 90.7109375 36.052734375)"><path d="M18.03 0 M18.03 0 C63.96 1.03, 105.65 -0.46, 163.4 0 M18.03 0 C63.14 1.34, 110.14 -0.24, 163.4 0 M163.4 0 C174.31 -1.58, 183.08 5.64, 181.42 18.03 M163.4 0 C175.21 1.66, 179.81 6.48, 181.42 18.03 M181.42 18.03 C182.41 27.78, 181.67 38.87, 181.42 54.08 M181.42 18.03 C181.25 27.75, 182.2 39.64, 181.42 54.08 M181.42 54.08 C182.28 65.07, 175.43 70.21, 163.4 72.11 M181.42 54.08 C180.64 66.94, 176.91 72.28, 163.4 72.11 M163.4 72.11 C134.15 74.7, 102.77 73.07, 18.03 72.11 M163.4 72.11 C118.64 71.13, 73.22 70.89, 18.03 72.11 M18.03 72.11 C6.93 73.79, -1.49 66.81, 0 54.08 M18.03 72.11 C8.12 71.3, -0.91 63.86, 0 54.08 M0 54.08 C-1.53 45.04, 0.84 31.78, 0 18.03 M0 54.08 C-1.19 41.93, -0.18 30.44, 0 18.03 M0 18.03 C0.93 5.45, 4.51 0.15, 18.03 0 M0 18.03 C-1.05 5.81, 5.08 -1.18, 18.03 0" stroke="#5f3dc4" stroke-width="1" fill="none"></path></g><g stroke-opacity="0.8" fill-opacity="0.8" transform="translate(819.0404020471891 86.1529904526098) rotate(0 52.41596984863281 20)"><text x="0" y="0" font-family="Virgil, Segoe UI Emoji" font-size="16px" fill="#5f3dc4" text-anchor="start" style="white-space: pre;" direction="ltr" dominant-baseline="text-before-edge">Alice's EOA  </text><text x="0" y="20" font-family="Virgil, Segoe UI Emoji" font-size="16px" fill="#5f3dc4" text-anchor="start" style="white-space: pre;" direction="ltr" dominant-baseline="text-before-edge">Smart Wallet</text></g><g stroke-opacity="0.8" fill-opacity="0.8" stroke-linecap="round" transform="translate(759.0395017149166 229.35844667445292) rotate(0 148.2548372624873 49.30538600782816)"><path d="M24.65 0 M24.65 0 C96.59 1.88, 167.3 0.45, 271.86 0 M24.65 0 C115.9 1.14, 208.73 1.63, 271.86 0 M271.86 0 C288.12 1.45, 295.11 8.62, 296.51 24.65 M271.86 0 C287.64 -1.05, 296.47 9.54, 296.51 24.65 M296.51 24.65 C296.51 41.05, 297.55 53.1, 296.51 73.96 M296.51 24.65 C297.17 34.45, 296.75 44.32, 296.51 73.96 M296.51 73.96 C295.83 91.13, 289.59 98.76, 271.86 98.61 M296.51 73.96 C294.27 89.68, 289.66 98.87, 271.86 98.61 M271.86 98.61 C176.45 97.11, 79.4 99.15, 24.65 98.61 M271.86 98.61 C193.01 99.22, 112.79 98.82, 24.65 98.61 M24.65 98.61 C10.05 97.91, -0.79 88.45, 0 73.96 M24.65 98.61 C7.99 99.77, 1.88 88.84, 0 73.96 M0 73.96 C0.47 56.96, -2.22 35.43, 0 24.65 M0 73.96 C0.44 59.04, -0.78 44.75, 0 24.65 M0 24.65 C-0.92 8.05, 7.41 -1.03, 24.65 0 M0 24.65 C1.76 9.59, 9.29 -2.03, 24.65 0" stroke="#5f3dc4" stroke-width="1" fill="none"></path></g><g stroke-opacity="0.8" fill-opacity="0.8" transform="translate(772.7474840021862 232.6568102659519) rotate(0 113.99751281738281 23)"><text x="0" y="0" font-family="Virgil, Segoe UI Emoji" font-size="17.847675395413933px" fill="#5f3dc4" text-anchor="start" style="white-space: pre;" direction="ltr" dominant-baseline="text-before-edge">Kakarot Smart Contract </text><text x="0" y="23" font-family="Virgil, Segoe UI Emoji" font-size="17.847675395413933px" fill="#5f3dc4" text-anchor="start" style="white-space: pre;" direction="ltr" dominant-baseline="text-before-edge">(EVM execution layer)</text></g><g stroke-opacity="0.8" fill-opacity="0.8" transform="translate(872.9885555343711 285.06350438325194) rotate(0 83.28795623779297 20)"><text x="0" y="0" font-family="Virgil, Segoe UI Emoji" font-size="16px" fill="#343a40" text-anchor="start" style="white-space: pre;" direction="ltr" dominant-baseline="text-before-edge">7. execute bytecode </text><text x="0" y="20" font-family="Virgil, Segoe UI Emoji" font-size="16px" fill="#343a40" text-anchor="start" style="white-space: pre;" direction="ltr" dominant-baseline="text-before-edge">with tx calldata</text></g><g stroke-opacity="0.8" fill-opacity="0.8" stroke-linecap="round" transform="translate(744.3509574048702 376.0638536661803) rotate(0 61 46)"><path d="M77.5 11.75 M77.5 11.75 C85.39 21.4, 96.27 27.41, 106.5 35.25 M77.5 11.75 C87.85 19.98, 98.91 29.76, 106.5 35.25 M106.5 35.25 C121.96 47.41, 123.26 46.9, 106.5 58.75 M106.5 35.25 C123.95 48.08, 120.89 44.91, 106.5 58.75 M106.5 58.75 C95.49 66.34, 84.57 73.1, 77.5 80.25 M106.5 58.75 C95.9 65.7, 87.7 73.36, 77.5 80.25 M77.5 80.25 C63.73 90.31, 62.11 92.19, 46.5 80.25 M77.5 80.25 C59.75 90.14, 62.6 92.47, 46.5 80.25 M46.5 80.25 C39.33 72.76, 29.51 69.94, 15.5 58.75 M46.5 80.25 C38.27 74.75, 30.97 67.88, 15.5 58.75 M15.5 58.75 C1.43 48.02, -1.37 47.72, 15.5 35.25 M15.5 58.75 C1.51 44.74, -2.19 46.93, 15.5 35.25 M15.5 35.25 C24.27 26.43, 34.45 19.83, 46.5 11.75 M15.5 35.25 C25.39 29.16, 34.13 20.83, 46.5 11.75 M46.5 11.75 C62.28 1.07, 62.49 0.96, 77.5 11.75 M46.5 11.75 C62.43 0.57, 60.46 -1.54, 77.5 11.75" stroke="#0b7285" stroke-width="1" fill="none"></path></g><g stroke-opacity="0.8" fill-opacity="0.8" transform="translate(780.118978034753 413.0638536661803) rotate(0 25.231979370117188 9)"><text x="25.231979370117188" y="0" font-family="Virgil, Segoe UI Emoji" font-size="16px" fill="#0b7285" text-anchor="middle" style="white-space: pre;" direction="ltr" dominant-baseline="text-before-edge">SHARP</text></g><g stroke-linecap="round"><g stroke-opacity="0.8" fill-opacity="0.8" transform="translate(800.4307470166622 344.2326746573998) rotate(0 1.1996659999480954 16.42791098154163)"><path d="M-0.11 0.87 C0.02 6.33, 1.36 27.43, 1.75 32.58 M-1.62 0.28 C-1.2 5.38, 3.53 25.16, 4.02 30.58" stroke="#0b7285" stroke-width="1" fill="none"></path></g><g stroke-opacity="0.8" fill-opacity="0.8" transform="translate(800.4307470166622 344.2326746573998) rotate(0 1.1996659999480954 16.42791098154163)"><path d="M-2.83 15.35 C-0.63 21.43, 1.38 27.26, 4.95 30.56 M-3.31 16.87 C-1.73 20.27, 1.61 25.8, 4.37 30.17" stroke="#0b7285" stroke-width="1" fill="none"></path></g><g stroke-opacity="0.8" fill-opacity="0.8" transform="translate(800.4307470166622 344.2326746573998) rotate(0 1.1996659999480954 16.42791098154163)"><path d="M8.11 13.49 C6.12 20.27, 3.93 26.81, 4.95 30.56 M7.62 15.01 C5.71 19, 5.55 25.13, 4.37 30.17" stroke="#0b7285" stroke-width="1" fill="none"></path></g></g><mask></mask><g stroke-linecap="round"><g stroke-opacity="0.8" fill-opacity="0.8" transform="translate(805.6810620043851 471.34666131796155) rotate(0 -1.9103065183680563 22.061313715818443)"><path d="M-0.84 0.24 C-1.43 7.36, -3.2 36.12, -3.61 43.55 M0.92 -0.67 C0.15 6.52, -3.91 37.55, -4.74 44.8" stroke="#0b7285" stroke-width="1" fill="none"></path></g><g stroke-opacity="0.8" fill-opacity="0.8" transform="translate(805.6810620043851 471.34666131796155) rotate(0 -1.9103065183680563 22.061313715818443)"><path d="M-9.28 22.68 C-9 29.52, -5.5 35.79, -4.33 46.06 M-10.17 22.34 C-7.58 29.93, -6.16 35.43, -4.73 43.85" stroke="#0b7285" stroke-width="1" fill="none"></path></g><g stroke-opacity="0.8" fill-opacity="0.8" transform="translate(805.6810620043851 471.34666131796155) rotate(0 -1.9103065183680563 22.061313715818443)"><path d="M5.73 24.54 C1.62 30.73, 0.75 36.47, -4.33 46.06 M4.84 24.2 C2.99 31.31, -0.02 36.26, -4.73 43.85" stroke="#0b7285" stroke-width="1" fill="none"></path></g></g><mask></mask><g stroke-opacity="0.8" fill-opacity="0.8" stroke-linecap="round" transform="translate(759.8047095368094 522.3620951350559) rotate(0 51 25)"><path d="M12.5 0 M12.5 0 C29.28 0.18, 49.04 0.18, 89.5 0 M12.5 0 C38.02 0.51, 61.36 -0.87, 89.5 0 M89.5 0 C98.77 0.68, 102.86 3.14, 102 12.5 M89.5 0 C97.85 -2.17, 101.21 5.01, 102 12.5 M102 12.5 C101.4 22.81, 102.24 32.48, 102 37.5 M102 12.5 C101.04 17.08, 102.27 23.48, 102 37.5 M102 37.5 C101.72 45.75, 98.76 51.68, 89.5 50 M102 37.5 C100.28 46.66, 99.94 49.19, 89.5 50 M89.5 50 C70.46 51.56, 48.07 51.35, 12.5 50 M89.5 50 C63.13 49.3, 34.49 50.25, 12.5 50 M12.5 50 C4.28 51.2, 0.93 45.27, 0 37.5 M12.5 50 C2.44 50.17, -1.05 45.64, 0 37.5 M0 37.5 C1.32 31.94, -1.64 24.8, 0 12.5 M0 37.5 C0.13 28.9, -0.73 19.14, 0 12.5 M0 12.5 C1.88 6.1, 2.46 1.3, 12.5 0 M0 12.5 C2.17 3.42, 2.15 -0.79, 12.5 0" stroke="#0b7285" stroke-width="1" fill="none"></path></g><g stroke-opacity="0.8" fill-opacity="0.8" transform="translate(772.1167288849539 529.3620951350559) rotate(0 38.68798065185547 18)"><text x="38.68798065185547" y="0" font-family="Virgil, Segoe UI Emoji" font-size="16px" fill="#0b7285" text-anchor="middle" style="white-space: pre;" direction="ltr" dominant-baseline="text-before-edge">Starknet </text><text x="38.68798065185547" y="18" font-family="Virgil, Segoe UI Emoji" font-size="16px" fill="#0b7285" text-anchor="middle" style="white-space: pre;" direction="ltr" dominant-baseline="text-before-edge">Verifier</text></g><g stroke-opacity="0.8" fill-opacity="0.8" stroke-linecap="round" transform="translate(903.1947618629059 522.7105939378891) rotate(0 52.107421875 25)"><path d="M12.5 0 M12.5 0 C36.53 1.28, 59.64 1.71, 91.71 0 M12.5 0 C40.46 1.06, 67.9 0.21, 91.71 0 M91.71 0 C100.06 -1.89, 103.53 4.9, 104.21 12.5 M91.71 0 C101.54 0.18, 101.98 3.46, 104.21 12.5 M104.21 12.5 C102.55 21.59, 104.44 28.51, 104.21 37.5 M104.21 12.5 C104.14 17.93, 104.74 24.29, 104.21 37.5 M104.21 37.5 C102.72 46.55, 101.88 49.3, 91.71 50 M104.21 37.5 C103.3 43.59, 99.83 51.16, 91.71 50 M91.71 50 C62.51 49.2, 31.99 51.88, 12.5 50 M91.71 50 C75.79 50.58, 60.22 49.69, 12.5 50 M12.5 50 C2.67 50.15, -0.92 45.66, 0 37.5 M12.5 50 C3.24 48.82, 1.76 47.2, 0 37.5 M0 37.5 C1.3 29.32, 1.18 20.55, 0 12.5 M0 37.5 C1.1 30.35, -0.69 21.92, 0 12.5 M0 12.5 C1.89 3.51, 2.42 -0.69, 12.5 0 M0 12.5 C0.62 4.35, 3.51 1.85, 12.5 0" stroke="#0b7285" stroke-width="1" fill="none"></path></g><g stroke-opacity="0.8" fill-opacity="0.8" transform="translate(920.6142030860505 529.7105939378891) rotate(0 34.68798065185547 18)"><text x="34.68798065185547" y="0" font-family="Virgil, Segoe UI Emoji" font-size="16px" fill="#0b7285" text-anchor="middle" style="white-space: pre;" direction="ltr" dominant-baseline="text-before-edge">Starknet</text><text x="34.68798065185547" y="18" font-family="Virgil, Segoe UI Emoji" font-size="16px" fill="#0b7285" text-anchor="middle" style="white-space: pre;" direction="ltr" dominant-baseline="text-before-edge">Main</text></g><g stroke-opacity="0.8" fill-opacity="0.8" transform="translate(522.1583179904288 450.75241244994527) rotate(0 81.59196472167969 17.5)"><text x="0" y="0" font-family="Virgil, Segoe UI Emoji" font-size="28px" fill="#862e9c" text-anchor="start" style="white-space: pre;" direction="ltr" dominant-baseline="text-before-edge">Ethereum L1</text></g><g stroke-opacity="0.8" fill-opacity="0.8" transform="translate(834.1203273614093 372.96684673376126) rotate(0 120.94391632080078 10)"><text x="0" y="0" font-family="Virgil, Segoe UI Emoji" font-size="16px" fill="#0b7285" text-anchor="start" style="white-space: pre;" direction="ltr" dominant-baseline="text-before-edge">submit batch to shared prover</text></g><g stroke-opacity="0.8" fill-opacity="0.8" transform="translate(827.0450587772381 460.27615074855316) rotate(0 97.15995025634766 10)"><text x="0" y="0" font-family="Virgil, Segoe UI Emoji" font-size="16px" fill="#0b7285" text-anchor="start" style="white-space: pre;" direction="ltr" dominant-baseline="text-before-edge">commit block batch to L1</text></g><g stroke-linecap="round"><g stroke-opacity="0.8" fill-opacity="0.8" transform="translate(868.7606957836256 546.7478111235758) rotate(0 15.573551459188792 0.7112861563898036)"><path d="M0.51 -0.62 C5.72 -0.51, 26.67 0.5, 31.82 1.04 M-0.68 1.68 C4.33 1.85, 25.7 2.17, 30.88 1.98" stroke="#0b7285" stroke-width="1" fill="none"></path></g><g stroke-opacity="0.8" fill-opacity="0.8" transform="translate(868.7606957836256 546.7478111235758) rotate(0 15.573551459188792 0.7112861563898036)"><path d="M15.12 7.54 C19.59 5, 26.87 4.65, 31 0.43 M16.62 6.86 C19.97 6.1, 23.17 3.88, 31.09 2.14" stroke="#0b7285" stroke-width="1" fill="none"></path></g><g stroke-opacity="0.8" fill-opacity="0.8" transform="translate(868.7606957836256 546.7478111235758) rotate(0 15.573551459188792 0.7112861563898036)"><path d="M15.04 -3.37 C19.58 -2.13, 26.88 1.31, 31 0.43 M16.55 -4.05 C19.98 -1.88, 23.2 -1.16, 31.09 2.14" stroke="#0b7285" stroke-width="1" fill="none"></path></g></g><mask></mask><g stroke-linecap="round"><g stroke-opacity="0.8" fill-opacity="0.8" transform="translate(500.06365554079105 231.5625) rotate(0 10.073545431233953 -0.30272320548397147)"><path d="M0.01 -1.13 C3.52 -0.96, 17.8 0.21, 21.59 0.4 M-1.45 0.88 C1.83 0.74, 16.45 -1.58, 20.43 -1.49" stroke="#0b7285" stroke-width="1" fill="none"></path></g><g stroke-opacity="0.8" fill-opacity="0.8" transform="translate(500.06365554079105 231.5625) rotate(0 10.073545431233953 -0.30272320548397147)"><path d="M9.37 2.67 C14.27 2.21, 17.39 -1.13, 20.09 -0.83 M10.44 3.1 C12.95 1.28, 16.75 0.42, 20.35 -1.51" stroke="#0b7285" stroke-width="1" fill="none"></path></g><g stroke-opacity="0.8" fill-opacity="0.8" transform="translate(500.06365554079105 231.5625) rotate(0 10.073545431233953 -0.30272320548397147)"><path d="M8.8 -4.83 C13.86 -2.72, 17.17 -3.49, 20.09 -0.83 M9.87 -4.4 C12.62 -3.89, 16.6 -2.41, 20.35 -1.51" stroke="#0b7285" stroke-width="1" fill="none"></path></g></g><mask></mask><g mask="url(#mask-eCPqG0hYXmj-DE_gyja20)" stroke-linecap="round"><g stroke-opacity="0.8" fill-opacity="0.8" transform="translate(574.6151553769394 189.18508253198638) rotate(0 111.05750024399568 -36.75666154417568)"><path d="M-0.41 0.44 C11.44 -7.55, 34.31 -36.65, 71.09 -49.05 C107.86 -61.45, 195.07 -69.89, 220.24 -73.95 M1.58 -0.37 C13.33 -8.05, 33.72 -35.39, 70.55 -47.46 C107.37 -59.54, 197.16 -68.7, 222.53 -72.83" stroke="#0b7285" stroke-width="1" fill="none"></path></g><g stroke-opacity="0.8" fill-opacity="0.8" transform="translate(574.6151553769394 189.18508253198638) rotate(0 111.05750024399568 -36.75666154417568)"><path d="M196.7 -57.58 C204.24 -64.93, 211.45 -65.99, 222.75 -71.1 M194.99 -59.69 C201.95 -61.71, 207.27 -64.96, 222.99 -71.99" stroke="#0b7285" stroke-width="1" fill="none"></path></g><g stroke-opacity="0.8" fill-opacity="0.8" transform="translate(574.6151553769394 189.18508253198638) rotate(0 111.05750024399568 -36.75666154417568)"><path d="M193.95 -77.92 C202.12 -79.14, 210.16 -74.09, 222.75 -71.1 M192.23 -80.02 C199.8 -77.66, 205.71 -76.53, 222.99 -71.99" stroke="#0b7285" stroke-width="1" fill="none"></path></g></g><mask id="mask-eCPqG0hYXmj-DE_gyja20"><rect x="0" y="0" fill="#fff" width="896.0264676620578" height="362.76859040919067"></rect><rect x="592.827240756718" y="122.04381405743419" fill="#000" width="104.19195556640625" height="36" opacity="1"></rect></mask><g stroke-opacity="0.8" fill-opacity="0.8" transform="translate(592.827240756718 122.04381405743419) rotate(0 92.84541486421706 30.384606930376513)"><text x="52.095977783203125" y="0" font-family="Virgil, Segoe UI Emoji" font-size="16px" fill="#0b7285" text-anchor="middle" style="white-space: pre;" direction="ltr" dominant-baseline="text-before-edge">4. call</text><text x="52.095977783203125" y="18" font-family="Virgil, Segoe UI Emoji" font-size="16px" fill="#0b7285" text-anchor="middle" style="white-space: pre;" direction="ltr" dominant-baseline="text-before-edge">Alice account</text></g><g stroke-linecap="round"><g stroke-opacity="0.8" fill-opacity="0.8" transform="translate(991.4498063006698 102.3656278252729) rotate(0 0.6735354760382677 59.913814522875256)"><path d="M-1.17 -0.37 C1.16 5.31, 16.8 14.01, 14.77 34.18 C12.73 54.35, -8.53 106.05, -13.38 120.65 M0.42 -1.61 C2.59 4.28, 16.53 15.28, 14.19 35.79 C11.85 56.29, -8.89 106.91, -13.6 121.44" stroke="#343a40" stroke-width="1" fill="none"></path></g><g stroke-opacity="0.8" fill-opacity="0.8" transform="translate(991.4498063006698 102.3656278252729) rotate(0 0.6735354760382677 59.913814522875256)"><path d="M-14.24 92.62 C-13.37 104.12, -15.27 113.44, -13.41 119.48 M-13.76 91.4 C-13.08 98.85, -14.28 104.94, -12.68 121.09" stroke="#343a40" stroke-width="1" fill="none"></path></g><g stroke-opacity="0.8" fill-opacity="0.8" transform="translate(991.4498063006698 102.3656278252729) rotate(0 0.6735354760382677 59.913814522875256)"><path d="M5.05 99.63 C-1.12 108.38, -10.06 115.14, -13.41 119.48 M5.53 98.4 C1.97 104.36, -3.46 108.91, -12.68 121.09" stroke="#343a40" stroke-width="1" fill="none"></path></g></g><mask></mask><g stroke-opacity="0.8" fill-opacity="0.8" transform="translate(1011.3493840519844 79.54071455045215) rotate(0 103.0079345703125 20)"><text x="0" y="0" font-family="Virgil, Segoe UI Emoji" font-size="16px" fill="#343a40" text-anchor="start" style="white-space: pre;" direction="ltr" dominant-baseline="text-before-edge">5. validate EVM signature</text><text x="0" y="20" font-family="Virgil, Segoe UI Emoji" font-size="16px" fill="#343a40" text-anchor="start" style="white-space: pre;" direction="ltr" dominant-baseline="text-before-edge">and execute tx</text></g><g stroke-opacity="0.8" fill-opacity="0.8" stroke-linecap="round" transform="translate(1153.0805383035279 183.464507415117) rotate(0 36.232371157226 28)"><path d="M46.25 7.25 M46.25 7.25 C50.67 12.42, 58.65 15.57, 63.21 21.75 M46.25 7.25 C49.86 10.35, 54.18 14.41, 63.21 21.75 M63.21 21.75 C70.97 29.72, 74.3 28.3, 63.21 36.25 M63.21 21.75 C71.55 26.76, 72.24 30.16, 63.21 36.25 M63.21 36.25 C57.68 39.77, 50.91 47.22, 46.25 48.75 M63.21 36.25 C59.73 39.37, 56.72 41.01, 46.25 48.75 M46.25 48.75 C35.5 56.15, 36.08 55.83, 27.75 48.75 M46.25 48.75 C36.07 54.82, 38.76 57.37, 27.75 48.75 M27.75 48.75 C22.52 44.93, 16 40.49, 9.25 36.25 M27.75 48.75 C22.76 45.53, 14.97 41.16, 9.25 36.25 M9.25 36.25 C1.89 28.35, -1.75 28.31, 9.25 21.75 M9.25 36.25 C0.62 29.18, -0.66 30.85, 9.25 21.75 M9.25 21.75 C15.5 19.71, 19.57 13.8, 27.75 7.25 M9.25 21.75 C13.69 17.14, 17.64 14.95, 27.75 7.25 M27.75 7.25 C38.4 -1.82, 35.29 1.75, 46.25 7.25 M27.75 7.25 C38.44 2.19, 38.54 1.22, 46.25 7.25" stroke="#343a40" stroke-width="1" fill="none"></path></g><g stroke-opacity="0.8" fill-opacity="0.8" stroke-linecap="round" transform="translate(1261.8676128795255 183.80677428794166) rotate(0 35.6299814610544 46)"><path d="M45 11.75 M45 11.75 C48.67 19.62, 55.97 25.99, 62.26 35.25 M45 11.75 C49.47 18.92, 56.24 25.16, 62.26 35.25 M62.26 35.25 C70.47 45.05, 71.07 48.01, 62.26 58.75 M62.26 35.25 C73.14 45.45, 72.9 48.17, 62.26 58.75 M62.26 58.75 C56.37 61.94, 54.28 68.94, 45 80.25 M62.26 58.75 C55.39 66.52, 49.47 74.1, 45 80.25 M45 80.25 C35.19 90.97, 37.53 93.19, 27 80.25 M45 80.25 C37.07 89.97, 36.33 93.24, 27 80.25 M27 80.25 C21.55 71.97, 13.88 68.21, 9 58.75 M27 80.25 C20.99 71.51, 12.03 62.97, 9 58.75 M9 58.75 C0.54 47.16, -0.57 48.61, 9 35.25 M9 58.75 C-1.14 46.14, -1.43 48.81, 9 35.25 M9 35.25 C14.64 27.71, 23.55 17.5, 27 11.75 M9 35.25 C13.77 29.17, 16.09 25.9, 27 11.75 M27 11.75 C37.25 1.9, 37.34 1.06, 45 11.75 M27 11.75 C34.12 -0.92, 36.95 0.98, 45 11.75" stroke="#343a40" stroke-width="1" fill="none"></path></g><g stroke-opacity="0.8" fill-opacity="0.8" transform="translate(1285.5146119718693 211.80677428794166) rotate(0 12.167991638183594 18)"><text x="12.167991638183594" y="0" font-family="Virgil, Segoe UI Emoji" font-size="16px" fill="#343a40" text-anchor="middle" style="white-space: pre;" direction="ltr" dominant-baseline="text-before-edge">erc</text><text x="12.167991638183594" y="18" font-family="Virgil, Segoe UI Emoji" font-size="16px" fill="#343a40" text-anchor="middle" style="white-space: pre;" direction="ltr" dominant-baseline="text-before-edge">721</text></g><g stroke-opacity="0.8" fill-opacity="0.8" stroke-linecap="round" transform="translate(1171.7553175901467 228.0127364872294) rotate(0 53 28)"><path d="M67.5 7.25 M67.5 7.25 C75.6 12.94, 85.52 15.25, 92.5 21.75 M67.5 7.25 C75.63 11.23, 84.33 17.58, 92.5 21.75 M92.5 21.75 C107.63 27.65, 107.43 30.02, 92.5 36.25 M92.5 21.75 C104.43 29.83, 107.51 26.74, 92.5 36.25 M92.5 36.25 C88.58 39.75, 81.69 39.88, 67.5 48.75 M92.5 36.25 C84.35 39.56, 77.83 44.51, 67.5 48.75 M67.5 48.75 C54.93 54.23, 54.28 57.07, 40.5 48.75 M67.5 48.75 C54.56 57.11, 54.43 56.57, 40.5 48.75 M40.5 48.75 C36.22 44.38, 29.3 45.06, 13.5 36.25 M40.5 48.75 C33.66 45.39, 25.89 42.78, 13.5 36.25 M13.5 36.25 C-0.99 28.26, -1.24 30.57, 13.5 21.75 M13.5 36.25 C1.69 30.15, -0.93 27.88, 13.5 21.75 M13.5 21.75 C21.39 14.93, 33.97 12.8, 40.5 7.25 M13.5 21.75 C19.89 19.43, 25.58 15.98, 40.5 7.25 M40.5 7.25 C52.36 -0.8, 54.83 0.85, 67.5 7.25 M40.5 7.25 C53.84 0.28, 55.32 0.33, 67.5 7.25" stroke="#343a40" stroke-width="1" fill="none"></path></g><g stroke-opacity="0.8" fill-opacity="0.8" transform="translate(1204.1953276609474 247.0127364872294) rotate(0 20.55998992919922 9)"><text x="20.55998992919922" y="0" font-family="Virgil, Segoe UI Emoji" font-size="16px" fill="#343a40" text-anchor="middle" style="white-space: pre;" direction="ltr" dominant-baseline="text-before-edge">curve</text></g><g stroke-opacity="0.8" fill-opacity="0.8" stroke-linecap="round" transform="translate(1144.0446928609558 166.786205274096) rotate(0 109.93383777215132 63.02502196194588)"><path d="M157.61 6.41 C170.45 9.12, 183.82 16.12, 193.11 22.3 C202.41 28.48, 208.87 36.14, 213.37 43.5 C217.88 50.86, 220.89 58.47, 220.14 66.48 C219.39 74.5, 215.33 84.41, 208.88 91.57 C202.42 98.74, 192.02 104.27, 181.41 109.47 C170.8 114.67, 158.22 119.95, 145.21 122.77 C132.19 125.59, 117.34 127.04, 103.31 126.38 C89.28 125.72, 73.66 122.5, 61 118.79 C48.34 115.08, 36.54 110.1, 27.33 104.11 C18.12 98.12, 10.34 90.27, 5.74 82.86 C1.14 75.45, -1.31 67.53, -0.28 59.65 C0.76 51.77, 5.8 42.91, 11.95 35.6 C18.09 28.28, 26.06 21.1, 36.59 15.77 C47.13 10.43, 61.66 6.16, 75.17 3.58 C88.68 1.01, 102.57 -0.4, 117.64 0.32 C132.71 1.05, 156.88 5.82, 165.6 7.92 C174.31 10.02, 170.74 12.04, 169.93 12.92 M143.73 2.79 C156.72 4.41, 171.93 10.09, 182.64 15.67 C193.35 21.24, 201.95 29.14, 207.99 36.23 C214.03 43.32, 218.01 50.19, 218.87 58.2 C219.73 66.22, 217.35 76.49, 213.18 84.33 C209.01 92.16, 203.02 99.49, 193.85 105.23 C184.68 110.96, 170.77 115.16, 158.17 118.76 C145.57 122.36, 132.17 126.37, 118.24 126.82 C104.32 127.28, 88.27 124.05, 74.63 121.48 C60.99 118.91, 46.75 116.72, 36.39 111.42 C26.04 106.11, 18.74 96.8, 12.5 89.66 C6.26 82.53, -0.06 76.16, -1.03 68.6 C-2 61.05, 1.84 52.03, 6.69 44.33 C11.55 36.62, 19.26 28.77, 28.12 22.37 C36.98 15.98, 47.36 9.56, 59.86 5.96 C72.36 2.36, 88.94 1.2, 103.12 0.78 C117.3 0.37, 137.92 2.83, 144.93 3.48 C151.95 4.14, 145.9 3.53, 145.2 4.71" stroke="#5f3dc4" stroke-width="1" fill="none"></path></g><g stroke-opacity="0.8" fill-opacity="0.8" transform="translate(1162.2953342373553 308.1642365197689) rotate(0 109.77593231201172 20)"><text x="0" y="0" font-family="Virgil, Segoe UI Emoji" font-size="16px" fill="#5f3dc4" text-anchor="start" style="white-space: pre;" direction="ltr" dominant-baseline="text-before-edge">EVM contract accounts</text><text x="0" y="20" font-family="Virgil, Segoe UI Emoji" font-size="16px" fill="#5f3dc4" text-anchor="start" style="white-space: pre;" direction="ltr" dominant-baseline="text-before-edge">(Starknet smart contracts)</text></g><g stroke-opacity="0.8" fill-opacity="0.8" transform="translate(1167.5753711954649 200.1767563644143) rotate(0 23.03199005126953 10)"><text x="0" y="0" font-family="Virgil, Segoe UI Emoji" font-size="16px" fill="#343a40" text-anchor="start" style="white-space: pre;" direction="ltr" dominant-baseline="text-before-edge">erc20</text></g><g stroke-linecap="round"><g stroke-opacity="0.8" fill-opacity="0.8" transform="translate(998.1559124312065 241.66356647023406) rotate(0 81.89643648985519 -25.165991365416815)"><path d="M-0.12 0.6 C14.29 -4.97, 58.39 -26.37, 85.98 -34.62 C113.57 -42.87, 152.47 -46.5, 165.43 -48.91 M-1.64 -0.13 C12.74 -5.46, 57.75 -25.04, 85.54 -33.51 C113.33 -41.97, 152.11 -48.56, 165.11 -50.94" stroke="#343a40" stroke-width="1" fill="none"></path></g><g stroke-opacity="0.8" fill-opacity="0.8" transform="translate(998.1559124312065 241.66356647023406) rotate(0 81.89643648985519 -25.165991365416815)"><path d="M140.22 -34.17 C144.75 -38.29, 153.86 -45.02, 165.84 -49.62 M139.27 -35.2 C145.05 -39.13, 149.06 -41.82, 164.66 -51.02" stroke="#343a40" stroke-width="1" fill="none"></path></g><g stroke-opacity="0.8" fill-opacity="0.8" transform="translate(998.1559124312065 241.66356647023406) rotate(0 81.89643648985519 -25.165991365416815)"><path d="M136.55 -54.36 C141.84 -53.22, 151.91 -54.7, 165.84 -49.62 M135.6 -55.39 C141.92 -55.24, 146.68 -53.87, 164.66 -51.02" stroke="#343a40" stroke-width="1" fill="none"></path></g></g><mask></mask><g stroke-opacity="0.8" fill-opacity="0.8" transform="translate(1095.5669847114455 144.43745523533084) rotate(0 51.71996307373047 20)"><text x="0" y="0" font-family="Virgil, Segoe UI Emoji" font-size="16px" fill="#343a40" text-anchor="start" style="white-space: pre;" direction="ltr" dominant-baseline="text-before-edge">6. fetch EVM</text><text x="0" y="20" font-family="Virgil, Segoe UI Emoji" font-size="16px" fill="#343a40" text-anchor="start" style="white-space: pre;" direction="ltr" dominant-baseline="text-before-edge">bytecode</text></g><g stroke-linecap="round"><g stroke-opacity="0.8" fill-opacity="0.8" transform="translate(318.45818679079105 225.5703125) rotate(0 18.929224698096533 1.0308731540493028)"><path d="M0.86 0.61 C6.65 1.11, 29.65 2.18, 35.73 2.17 M-0.15 -0.11 C5.93 0.09, 31.82 0.05, 38.01 0.28" stroke="#5f3dc4" stroke-width="1" fill="none"></path></g><g stroke-opacity="0.8" fill-opacity="0.8" transform="translate(318.45818679079105 225.5703125) rotate(0 18.929224698096533 1.0308731540493028)"><path d="M21.66 5.03 C28.03 5.07, 32.16 -0.17, 37.96 0.38 M20.04 6.35 C26.51 4.09, 32.78 1.54, 38.71 0.82" stroke="#5f3dc4" stroke-width="1" fill="none"></path></g><g stroke-opacity="0.8" fill-opacity="0.8" transform="translate(318.45818679079105 225.5703125) rotate(0 18.929224698096533 1.0308731540493028)"><path d="M21.85 -7.49 C28.06 -2.67, 32.12 -3.13, 37.96 0.38 M20.23 -6.17 C26.68 -3.92, 32.89 -1.96, 38.71 0.82" stroke="#5f3dc4" stroke-width="1" fill="none"></path></g></g><mask></mask></svg>